<svg width="133" height="94" viewBox="0 0 133 94" fill="none" xmlns="http://www.w3.org/2000/svg">
<path fill-rule="evenodd" clip-rule="evenodd" d="M81.0454 10.9091C84.0576 10.9091 86.4999 8.46714 86.4999 5.45457C86.4999 2.4423 84.0576 0 81.0454 0C78.0328 0 75.5908 2.4423 75.5908 5.45457C75.5941 8.46583 78.0341 10.9058 81.0454 10.9091Z" fill="#6B35FB"/>
<path fill-rule="evenodd" clip-rule="evenodd" d="M58.2121 15.9999C59.0032 16.0012 59.7627 15.692 60.322 15.1399L66.4238 9.12381L70.4968 13.1392C71.6618 14.2876 73.5502 14.2876 74.7151 13.1392L74.7194 13.1353C75.8811 11.9862 75.8811 10.1271 74.7194 8.97797L68.8141 3.15786C67.494 1.8564 65.3536 1.8564 64.0332 3.15786L56.0994 10.9787C55.2468 11.8205 54.9926 13.0858 55.4549 14.1848C55.9175 15.2834 57.0052 15.9999 58.2121 15.9999Z" fill="#6B35FB"/>
<path fill-rule="evenodd" clip-rule="evenodd" d="M83.8554 17.1427H77.2438V13.766C77.2438 13.493 77.0827 13.247 76.8355 13.1424C76.5885 13.0379 76.3041 13.0956 76.1152 13.2885L72.1483 17.3406C72.0243 17.4672 71.9546 17.639 71.9546 17.8181V20.5195C71.9546 21.6387 72.8424 22.5455 73.9381 22.5455H83.8554C85.3159 22.5455 86.5 21.3363 86.5 19.8441C86.5 18.3523 85.3159 17.1427 83.8554 17.1427Z" fill="#6B35FB"/>
<path fill-rule="evenodd" clip-rule="evenodd" d="M63.757 26.0276L60.4681 22.7371C60.1977 22.4815 59.775 22.4815 59.5049 22.7371L47.3801 34.8684C46.2066 36.0422 46.2066 37.9453 47.3801 39.119C48.5539 40.2914 50.4547 40.2947 51.6285 39.1223L63.7533 26.9913C64.0204 26.7261 64.0217 26.2948 63.757 26.0276Z" fill="#6B35FB"/>
<path fill-rule="evenodd" clip-rule="evenodd" d="M66.9931 19.0914C66.2616 18.3155 65.1807 18.0055 64.1651 18.28C63.1491 18.555 62.356 19.3719 62.0888 20.4184C61.8219 21.4645 62.1225 22.5779 62.8761 23.3316L68.027 28.6358L61.781 32.0643C60.392 32.8816 59.9072 34.703 60.6978 36.1354L60.7915 36.3134C61.3142 37.2448 62.2796 37.8184 63.3243 37.8181C63.8235 37.8188 64.3141 37.6845 64.7471 37.4285L72.8785 32.9241L73.9334 32.3C74.8241 31.7745 75.4264 30.851 75.5622 29.8026C75.6977 28.7545 75.3514 27.7008 74.6255 26.9531L66.9931 19.0914Z" fill="#6B35FB"/>
<path d="M7.4047 50.556H17.5527L21.7667 70.422H21.8527L31.6997 50.556H41.8047L37.5477 81H30.8397L34.1077 57.651H34.0217L22.7557 81H17.6387L13.2097 57.651H13.1237L9.8557 81H3.1477L7.4047 50.556ZM54.6374 84.397C54.0641 85.515 53.5194 86.504 53.0034 87.364C52.4874 88.224 51.8711 88.9407 51.1544 89.514C50.4664 90.116 49.6208 90.5603 48.6174 90.847C47.6428 91.1623 46.3814 91.32 44.8334 91.32C43.1708 91.32 41.6084 91.062 40.1464 90.546L41.7374 85.257C42.6261 85.687 43.5864 85.902 44.6184 85.902C45.3351 85.902 45.9371 85.816 46.4244 85.644C46.9118 85.5007 47.3274 85.2713 47.6714 84.956C48.0154 84.6693 48.3164 84.311 48.5744 83.881C48.8324 83.451 49.1191 82.9493 49.4344 82.376L50.0794 81.172L43.8874 60.102H50.8534L54.2934 73.905H54.3794L60.9154 60.102H67.5374L54.6374 84.397ZM70.1073 60.102H76.5573L76.0843 63.456H76.1703C77.0303 62.166 77.9763 61.2057 79.0083 60.575C80.0403 59.9157 81.273 59.586 82.7063 59.586C83.079 59.586 83.4516 59.6003 83.8243 59.629C84.197 59.6577 84.541 59.715 84.8563 59.801L84.0393 65.692C83.5806 65.5487 83.1363 65.4483 82.7063 65.391C82.2763 65.305 81.8176 65.262 81.3303 65.262C80.0976 65.262 79.0943 65.434 78.3203 65.778C77.5463 66.122 76.93 66.6093 76.4713 67.24C76.0126 67.842 75.6543 68.573 75.3963 69.433C75.167 70.293 74.9806 71.239 74.8373 72.271L73.6333 81H67.1833L70.1073 60.102ZM84.8025 70.551C85.0318 68.8883 85.5335 67.3833 86.3075 66.036C87.1101 64.6887 88.0991 63.542 89.2745 62.596C90.4498 61.6213 91.7828 60.876 93.2735 60.36C94.7641 59.844 96.3121 59.586 97.9175 59.586C99.5228 59.586 100.999 59.844 102.346 60.36C103.694 60.876 104.826 61.6213 105.743 62.596C106.661 63.542 107.32 64.6887 107.721 66.036C108.151 67.3833 108.252 68.8883 108.022 70.551C107.793 72.2137 107.277 73.7187 106.474 75.066C105.672 76.4133 104.683 77.5743 103.507 78.549C102.332 79.495 100.999 80.226 99.5085 80.742C98.0178 81.258 96.4698 81.516 94.8645 81.516C93.2591 81.516 91.7828 81.258 90.4355 80.742C89.0881 80.226 87.9558 79.495 87.0385 78.549C86.1498 77.5743 85.4905 76.4133 85.0605 75.066C84.6591 73.7187 84.5731 72.2137 84.8025 70.551ZM91.2525 70.551C91.0231 72.1277 91.2811 73.4033 92.0265 74.378C92.8005 75.3527 94.0045 75.84 95.6385 75.84C97.2725 75.84 98.6055 75.3527 99.6375 74.378C100.698 73.4033 101.343 72.1277 101.572 70.551C101.802 68.9743 101.529 67.6987 100.755 66.724C99.9815 65.7493 98.7775 65.262 97.1435 65.262C95.5095 65.262 94.1765 65.7493 93.1445 66.724C92.1125 67.6987 91.4818 68.9743 91.2525 70.551ZM113.46 60.102H119.652L119.265 62.94H119.351C119.609 62.5387 119.953 62.1373 120.383 61.736C120.813 61.3347 121.3 60.9763 121.845 60.661C122.39 60.3457 123.006 60.0877 123.694 59.887C124.382 59.6863 125.113 59.586 125.887 59.586C127.521 59.586 128.811 59.844 129.757 60.36C130.703 60.8473 131.391 61.5353 131.821 62.424C132.251 63.3127 132.48 64.359 132.509 65.563C132.538 66.767 132.452 68.0713 132.251 69.476L130.66 81H124.21L125.629 70.766C125.715 70.164 125.787 69.5477 125.844 68.917C125.901 68.2577 125.858 67.6557 125.715 67.111C125.572 66.5663 125.299 66.122 124.898 65.778C124.497 65.434 123.88 65.262 123.049 65.262C122.218 65.262 121.515 65.4197 120.942 65.735C120.397 66.0217 119.953 66.423 119.609 66.939C119.265 67.4263 119.007 67.9853 118.835 68.616C118.663 69.2467 118.534 69.906 118.448 70.594L116.986 81H110.536L113.46 60.102Z" fill="#1F2128"/>
</svg>
